<?xml version="1.0" encoding="iso-8859-1"?>
<!-- Generator: Adobe Illustrator 19.0.0, SVG Export Plug-In . SVG Version: 6.00 Build 0)  -->
<svg version="1.1" id="Layer_1" xmlns="http://www.w3.org/2000/svg" xmlns:xlink="http://www.w3.org/1999/xlink" x="0px" y="0px"
	 viewBox="0 0 512.021 512.021" style="enable-background:new 0 0 512.021 512.021;" xml:space="preserve">
<g>
	<g>
		<g style="fill:#F7B239;">
			<path d="M393.38,384.021H118.265c-5.589,7.595-10.752,14.763-15.339,21.333h305.771
				C404.132,398.763,398.969,391.595,393.38,384.021z"/>
			<path d="M371.855,355.157c-3.285-4.373-6.805-9.067-10.368-13.824H150.158c-3.563,4.757-7.083,9.472-10.368,13.824
				c-1.899,2.539-3.755,5.035-5.632,7.531h243.328C375.609,360.192,373.753,357.696,371.855,355.157z"/>
			<path d="M330.212,296.235c-3.328-14.165-21.504-66.411-34.837-79.765c-12.608-12.608-9.856-57.216-8.363-81.152
				c0.448-7.339,0.832-13.568,0.832-17.984c0-11.072-4.352-21.909-8.96-33.408C273.081,69.461,266.51,53.077,266.51,32V10.667
				C266.51,4.779,261.732,0,255.844,0c-5.888,0-10.667,4.779-10.667,10.667V32c0,21.056-6.571,37.461-12.373,51.925
				c-4.608,11.499-8.96,22.357-8.96,33.408c0,4.416,0.384,10.645,0.832,17.984c1.493,23.936,4.245,68.544-8.363,81.152
				c-13.333,13.355-31.509,65.6-34.795,79.552c-1.088,3.328-7.445,12.672-15.595,24h179.861
				C337.593,308.715,331.257,299.413,330.212,296.235z"/>
			<path d="M425.679,433.259c-0.789-1.899-1.92-4.139-3.264-6.592H89.252c-1.344,2.453-2.475,4.672-3.264,6.592
				c-2.091,5.099-6.763,9.984-12.523,14.763h364.736C432.441,443.243,427.769,438.315,425.679,433.259z"/>
			<path d="M497.679,493.077c-6.827-8.896-17.237-16.299-28.629-23.744H42.575c-12.331,8.064-23.531,16.107-30.272,26.005
				c-2.219,3.264-2.453,7.509-0.597,11.008c1.835,3.477,5.483,5.675,9.429,5.675h469.333c0.149,0,0.277,0,0.427,0
				c5.888,0,10.667-4.779,10.667-10.667C501.583,498.027,500.068,495.04,497.679,493.077z"/>
		</g>
	</g>
</g>

</svg>
